<svg width="28" height="28" viewBox="0 0 28 28" fill="none" xmlns="http://www.w3.org/2000/svg">
<g clip-path="url(#clip0_6084_8810)">
<path d="M22.2578 0.875C19.0919 0.875 16.5156 3.45127 16.5156 6.61719C16.5156 9.7831 19.0919 12.3594 22.2578 12.3594C25.4237 12.3594 28 9.7831 28 6.61719C28 3.45127 25.4237 0.875 22.2578 0.875ZM24.7188 7.4375H23.0781V9.07812H21.4375V7.4375H19.7969V5.79688H21.4375V4.15625H23.0781V5.79688H24.7188V7.4375Z" fill="white"/>
<path d="M7.49219 20.5625H22.8923L24.7108 13.549C24.1408 13.7514 23.5407 13.8771 22.9166 13.9334L22.8994 14H19.0474L19.1085 13.2677C18.5416 12.9979 18.0238 12.653 17.5474 12.2542L17.4018 14H13.9888L13.7153 10.7188H16.1248C15.7872 10.2156 15.5353 9.65803 15.3285 9.07812H7.60326L6.50929 4.15625H0V5.79688H5.19389L8.10983 18.9219H7.49219C6.13517 18.9219 5.03125 20.0258 5.03125 21.3828C5.03125 22.7398 6.13517 23.8438 7.49219 23.8438H8.4636C8.37167 24.1016 8.3125 24.3751 8.3125 24.6641C8.3125 26.0211 9.41642 27.125 10.7734 27.125C12.1305 27.125 13.2344 26.0211 13.2344 24.6641C13.2344 24.3751 13.1752 24.1016 13.0833 23.8438H16.6667C16.5748 24.1016 16.5156 24.3751 16.5156 24.6641C16.5156 26.0211 17.6195 27.125 18.9766 27.125C20.3336 27.125 21.4375 26.0211 21.4375 24.6641C21.4375 24.3751 21.3783 24.1016 21.2864 23.8438H23.0781V22.2031H7.49219C7.03959 22.2031 6.67188 21.8354 6.67188 21.3828C6.67188 20.9302 7.03959 20.5625 7.49219 20.5625ZM18.9107 15.6406H22.474L21.6233 18.9219H18.6372L18.9107 15.6406ZM17.2651 15.6406L16.9916 18.9219H14.3989L14.1254 15.6406H17.2651ZM12.7534 18.9219H9.79109L9.06177 15.6406H12.4799L12.7534 18.9219ZM7.96786 10.7188H12.0698L12.3433 14H8.69723L7.96786 10.7188ZM11.5938 24.6641C11.5938 25.1167 11.226 25.4844 10.7734 25.4844C10.3208 25.4844 9.95312 25.1167 9.95312 24.6641C9.95312 24.2115 10.3208 23.8438 10.7734 23.8438C11.226 23.8438 11.5938 24.2115 11.5938 24.6641ZM19.7969 24.6641C19.7969 25.1167 19.4292 25.4844 18.9766 25.4844C18.524 25.4844 18.1562 25.1167 18.1562 24.6641C18.1562 24.2115 18.524 23.8438 18.9766 23.8438C19.4292 23.8438 19.7969 24.2115 19.7969 24.6641Z" fill="white"/>
</g>
<defs>
<clipPath id="clip0_6084_8810">
<rect width="28" height="28" fill="white"/>
</clipPath>
</defs>
</svg>
