<svg width="24" height="24" viewBox="0 0 24 24" fill="none" xmlns="http://www.w3.org/2000/svg">
<path d="M0 9.7995L8.66339 14.7596L10.9141 11.9357L1.79174 7.11899L0 9.7995ZM13.0617 11.9251L15.3207 14.7596L24 9.79042L22.1839 6.9234L13.0617 11.9251ZM3.10646 6.22396L11.9858 10.9123L20.8778 6.03678L12.0051 1.8457L3.10646 6.22396Z" fill="white"/>
<path d="M2.26221 17.3877L11.2897 22.1543V13.7197L9.38641 16.1077C9.28192 16.2389 9.1339 16.3284 8.96916 16.3599C8.80443 16.3914 8.63385 16.3629 8.48831 16.2795L2.26221 12.7149V17.3877ZM12.6945 13.7197V22.1324L21.722 17.1757V12.7148L15.4959 16.2795C15.3504 16.3628 15.1798 16.3913 15.0151 16.3598C14.8504 16.3282 14.7024 16.2388 14.5978 16.1077L12.6945 13.7197Z" fill="white"/>
</svg>
