<svg width="24" height="24" viewBox="0 0 24 24" fill="none" xmlns="http://www.w3.org/2000/svg">
<g clip-path="url(#clip0_5006_8742)">
<path d="M7.90195 16.0811C7.22006 16.6144 6.6686 17.296 6.28942 18.0742C5.91024 18.8524 5.71331 19.7067 5.71357 20.5724V22.2866H2.2853C1.33681 22.2866 0.571167 21.5209 0.571167 20.5724V19.4296C0.571167 17.2182 2.35958 15.4297 4.57082 15.4297H5.71357C6.52493 15.4297 7.27344 15.6697 7.90195 16.0811Z" fill="white"/>
<path d="M18.856 15.4298C20.276 15.4298 21.4272 14.2786 21.4272 12.8585C21.4272 11.4383 20.276 10.2871 18.856 10.2871C17.436 10.2871 16.2848 11.4383 16.2848 12.8585C16.2848 14.2786 17.436 15.4298 18.856 15.4298Z" fill="white"/>
<path d="M5.14188 15.4298C6.56192 15.4298 7.71309 14.2786 7.71309 12.8585C7.71309 11.4383 6.56192 10.2871 5.14188 10.2871C3.72185 10.2871 2.57068 11.4383 2.57068 12.8585C2.57068 14.2786 3.72185 15.4298 5.14188 15.4298Z" fill="white"/>
<path d="M23.4277 19.4296V20.5724C23.4277 21.5209 22.6621 22.2866 21.7136 22.2866H18.2853V20.5724C18.2853 18.7496 17.4282 17.1268 16.0969 16.0811C16.7254 15.6697 17.4739 15.4297 18.2853 15.4297H19.4281C21.6393 15.4297 23.4277 17.2182 23.4277 19.4296Z" fill="white"/>
<path d="M11.9984 16.0004C13.734 16.0004 15.141 14.5933 15.141 12.8576C15.141 11.1219 13.734 9.71484 11.9984 9.71484C10.2628 9.71484 8.85583 11.1219 8.85583 12.8576C8.85583 14.5933 10.2628 16.0004 11.9984 16.0004Z" fill="white"/>
<path d="M12.5697 16.0002H11.4269C8.90658 16.0002 6.85591 18.051 6.85591 20.5715V22.2858C6.85591 23.2309 7.62498 24 8.57004 24H15.4266C16.3716 24 17.1407 23.2309 17.1407 22.2858V20.5715C17.1407 18.051 15.09 16.0002 12.5697 16.0002ZM20.2833 7.8199L18.9046 8.31017C18.8141 8.34233 18.7172 8.35197 18.6222 8.33824C18.5272 8.32452 18.4369 8.28785 18.3593 8.23141C18.2816 8.17497 18.2189 8.10046 18.1765 8.01432C18.1341 7.92818 18.1134 7.83301 18.1161 7.73704L18.1561 6.27423L17.2636 5.11426C17.2051 5.03814 17.166 4.94894 17.1497 4.85434C17.1334 4.75974 17.1404 4.6626 17.1701 4.57131C17.1997 4.48001 17.2511 4.3973 17.3199 4.33032C17.3886 4.26334 17.4726 4.2141 17.5647 4.18686L18.9686 3.77316L19.7959 2.56577C19.8502 2.48657 19.9229 2.42179 20.0078 2.37702C20.0928 2.33226 20.1873 2.30887 20.2833 2.30887C20.3793 2.30887 20.4738 2.33226 20.5588 2.37702C20.6437 2.42179 20.7164 2.48657 20.7707 2.56577L21.598 3.77316L23.0019 4.18686C23.4002 4.304 23.5562 4.78513 23.303 5.11426L22.4105 6.27423L22.4505 7.73704C22.4531 7.83296 22.4322 7.92806 22.3898 8.01412C22.3474 8.10019 22.2847 8.17464 22.2071 8.23106C22.1294 8.28747 22.0393 8.32415 21.9443 8.33793C21.8494 8.35172 21.7525 8.34219 21.662 8.31017L20.2833 7.8199ZM3.71332 7.8199L2.33459 8.31017C2.24414 8.34233 2.14722 8.35197 2.05221 8.33824C1.9572 8.32452 1.86696 8.28785 1.78931 8.23141C1.71166 8.17497 1.64893 8.10046 1.60655 8.01432C1.56417 7.92818 1.54342 7.83301 1.54608 7.73704L1.58608 6.27423L0.693588 5.11426C0.635112 5.03814 0.596041 4.94894 0.579748 4.85434C0.563456 4.75974 0.570433 4.6626 0.600076 4.57131C0.629719 4.48001 0.681137 4.3973 0.749891 4.33032C0.818645 4.26334 0.902668 4.2141 0.994705 4.18686L2.39858 3.77316L3.22594 2.56577C3.2802 2.48657 3.35293 2.42179 3.43785 2.37702C3.52278 2.33226 3.61733 2.30887 3.71332 2.30887C3.80932 2.30887 3.90387 2.33226 3.98879 2.37702C4.07372 2.42179 4.14645 2.48657 4.20071 2.56577L5.02807 3.77316L6.43194 4.18686C6.83019 4.304 6.98618 4.78513 6.73306 5.11426L5.84057 6.27423L5.88056 7.73704C5.88309 7.83296 5.86225 7.92806 5.81983 8.01412C5.77741 8.10019 5.71469 8.17464 5.63708 8.23106C5.55947 8.28747 5.46929 8.32415 5.37434 8.33793C5.27939 8.35172 5.18251 8.34219 5.09206 8.31017L3.71332 7.8199ZM11.9983 6.53422L10.3636 7.11535C10.2564 7.15345 10.1415 7.16485 10.0289 7.14857C9.91624 7.13229 9.80928 7.08882 9.71723 7.02192C9.62518 6.95502 9.55082 6.8667 9.50057 6.7646C9.45031 6.6625 9.42569 6.54969 9.42882 6.43594L9.47625 4.7017L8.41805 3.32631C8.34874 3.23607 8.30243 3.1303 8.28313 3.01816C8.26383 2.90601 8.27212 2.79085 8.30727 2.68262C8.34243 2.57439 8.4034 2.47635 8.48492 2.39695C8.56643 2.31756 8.66605 2.2592 8.77516 2.22692L10.4396 1.73608L11.4206 0.304688C11.485 0.21076 11.5712 0.133926 11.6719 0.0808359C11.7726 0.0277458 11.8848 0 11.9986 0C12.1124 0 12.2246 0.0277458 12.3253 0.0808359C12.426 0.133926 12.5122 0.21076 12.5765 0.304688L13.5576 1.73608L15.222 2.22692C15.3311 2.2592 15.4308 2.31756 15.5123 2.39695C15.5938 2.47635 15.6548 2.57439 15.6899 2.68262C15.7251 2.79085 15.7334 2.90601 15.7141 3.01816C15.6948 3.1303 15.6485 3.23607 15.5791 3.32631L14.5209 4.7017L14.5684 6.43594C14.5715 6.54969 14.5469 6.6625 14.4966 6.7646C14.4464 6.8667 14.372 6.95502 14.28 7.02192C14.1879 7.08882 14.081 7.13229 13.9683 7.14857C13.8557 7.16485 13.7408 7.15345 13.6336 7.11535L11.9983 6.53422Z" fill="white"/>
</g>
<defs>
<clipPath id="clip0_5006_8742">
<rect width="24" height="24" fill="white"/>
</clipPath>
</defs>
</svg>
